<?xml version="1.0" encoding="utf-8"?>
<!-- Generator: Adobe Illustrator 18.0.0, SVG Export Plug-In . SVG Version: 6.00 Build 0)  -->
<!DOCTYPE svg PUBLIC "-//W3C//DTD SVG 1.1//EN" "http://www.w3.org/Graphics/SVG/1.1/DTD/svg11.dtd">
<svg version="1.1" id="Слой_1" xmlns="http://www.w3.org/2000/svg" xmlns:xlink="http://www.w3.org/1999/xlink" x="0px" y="0px"
	 viewBox="0 0 1024 768" enable-background="new 0 0 1024 768" xml:space="preserve">
<path fill="none" stroke="#000000" stroke-width="2" stroke-linecap="round" stroke-linejoin="round" stroke-miterlimit="10" d="
	M1012.2,357.7c0,0,22.6,22.6,0,67.9c0,0-2.1,21.9-14.4,32.9c0,0-15.1,31.5-32.2,41.8c0,0-13.7,16.5-39.1,15.1c0,0-0.7,7.5-4.1,9.6
	c0,0,4.2,8.2-1.3,16.5c0,0-2.8,19.9-9.7,22.6c0,0,2.1,19.2-6.2,26.1c0,0-4.8,19.9-11.7,23.3c0,0-3.4,11-13,13.7
	c0,0-6.9,12.3-17.1,13c0,0-11,13-24.7,13c0,0-19.9,19.2-32.2,19.2c0,0-19.2,15.8-33.6,6.9c0,0-20.6,15.7-30.9,2.7
	c0,0-2.1,6.9-7.5,5.2l26.7,28.5c0,0,12.3,11.9-21.3,25.4c0,0-14.4,18.1-20.6,13.5c0,0-28.8-36.6-78.5-53.7c0,0-47.6-21.5-66.8-77.7
	c0,0-24,5.5-56.2-17.8c0,0-43.2,40.4-70.6,19.9c0,0-23.3-4.8-35,4.1c0,0-50,21.3-69.2-2.7c0,0-42.5,2.1-46.6-15.1
	c0,0-31.5-2.1-35.7-44.6c0,0-4.1-30.2,6.2-39.8c0,0-28.8,8.2-36.3,6.2c0,0-19.2,3.4-24,7.5c0,0-16.5,8.2-53.5,3.4
	c0,0-21.3-2.1-32.9,3.4c0,0-35,10.3-53.5-8.2c0,0-18.5,2.7-29.5-25.4c0,0-22.6-20.6-17.1-37.7c0,0-27.4-50-9.6-65.8
	c0,0-10.7-14.1-6-33.8c0,0,4-25.9,12.2-32.7c0,0-1.4-57.6,26.7-72.7c0,0-2.1-39.1,28.1-53.5c0,0,17.1-22.6,35.6-25.4
	c0,0,6.2-27.4,23.3-26.1c0,0,4.8-16.5,20.6-21.3c0,0,26.1-33.6,65.1-43.2c0,0,18.5-2.7,21.9,0c0,0,28.1-26.7,45.9-32.2
	c0,0,44.6-23.3,83-20.6c0,0,29.5,3.4,54.8-9.6c0,0,22.6-8.9,48,0c0,0,25.4-5.5,41.8-13.7c0,0,46.6-19.2,81.6-6.2
	c0,0,16.5-5.6,34.3-4.5c0,0,32.2-3,54.2,18.9c0,0,36.3-10.3,76.1,17.1c0,0,11,4.8,23.3,4.8c0,0,13.7,0,23.3,17.8
	c0,0,7.5,7.5,19.2,11c0,0,23.3,12.3,29.5,35.6c0,0,30.9-6.9,59,37.7c0,0,25.4,16.5,21.3,37c0,0,23.3-0.7,42.5,35
	c0,0,10.3,14.4,6.9,28.8c0,0,25.4-5.5,28.1,35c0,0,2.7,23.3,7.5,29.5c0,0,10.3,15.1-2.1,29.5L1012.2,357.7z"/>
</svg>
