<?xml version="1.0" encoding="utf-8"?>
<!-- Generator: Adobe Illustrator 21.0.0, SVG Export Plug-In . SVG Version: 6.00 Build 0)  -->
<svg version="1.0" id="Layer_1" xmlns="http://www.w3.org/2000/svg" xmlns:xlink="http://www.w3.org/1999/xlink" x="0px" y="0px"
	 viewBox="0 0 72 19" style="enable-background:new 0 0 72 19;" xml:space="preserve">
<style type="text/css">
	.st0{fill:#81D1DF;}
	.st1{fill:#5C3A57;}
	.st2{fill:#49C4A1;}
	.st3{fill:#E62A6D;}
	.st4{fill:#EDB525;}
	.st5{fill:#DFA22F;}
	.st6{fill:#3CB187;}
	.st7{fill:#CE1E5B;}
	.st8{fill:#392538;}
	.st9{fill:#BB242A;}
	.st10{fill:#72C5CD;}
	.st11{fill:#248C73;}
	.st12{fill:#62803A;}
	.st13{fill:#484848;}
	.st14{font-family:'ProximaNova-Bold';}
	.st15{font-size:7.1397px;}
</style>
<g id="CUHFOO.tif">
	<g>
		<path class="st0" d="M13.3,19c-4.4,0-8.8,0-13.2,0c0-6.3,0-12.6,0-18.9c4.4,0,8.8,0,13.2,0c0,0.4,0,0.7,0,1.1c-4,0-8.1,0-12.1,0
			c0,5.6,0,11.1,0,16.7c4,0,8.1,0,12.1,0C13.3,18.3,13.3,18.6,13.3,19z"/>
		<path class="st1" d="M58.8,0.1c4.4,0,8.8,0,13.2,0c0,6.3,0,12.6,0,18.9c-4.4,0-8.8,0-13.2,0c0-0.4,0-0.7,0-1.1c4,0,8.1,0,12.1,0
			c0-5.6,0-11.1,0-16.7c-4,0-8.1,0-12.1,0C58.8,0.8,58.8,0.4,58.8,0.1z"/>
		<path class="st2" d="M13.3,1.2c0-0.4,0-0.7,0-1.1c5.1,0,10.1,0,15.2,0c0,0.4,0,0.7,0,1.1C23.4,1.2,18.4,1.2,13.3,1.2z"/>
		<path class="st3" d="M58.8,0.1c0,0.4,0,0.7,0,1.1c-5.1,0-10.1,0-15.2,0c0-0.4,0-0.7,0-1.1C48.7,0.1,53.8,0.1,58.8,0.1z"/>
		<path class="st2" d="M13.3,19c0-0.4,0-0.7,0-1.1c5.1,0,10.1,0,15.2,0c0,0.4,0,0.7,0,1.1C23.4,19,18.4,19,13.3,19z"/>
		<path class="st3" d="M58.8,17.9c0,0.4,0,0.7,0,1.1c-5.1,0-10.1,0-15.2,0c0-0.4,0-0.7,0-1.1C48.7,17.9,53.8,17.9,58.8,17.9z"/>
		<path class="st4" d="M43.6,0.1c0,0.4,0,0.7,0,1.1c-5,0-10,0-15,0c0-0.4,0-0.7,0-1.1C33.6,0.1,38.6,0.1,43.6,0.1z"/>
		<path class="st4" d="M28.5,19c0-0.4,0-0.7,0-1.1c5,0,10,0,15.1,0c0,0.4,0,0.7,0,1.1C38.5,19,33.5,19,28.5,19z"/>
		<path class="st4" d="M28.6,0.1c0,0.4,0,0.7,0,1.1c0,0-0.1,0-0.1,0c0-0.4,0-0.7,0-1.1C28.5,0.1,28.5,0.1,28.6,0.1z"/>
		<path class="st4" d="M43.5,19c0-0.4,0-0.7,0-1.1c0,0,0.1,0,0.1,0c0,0.4,0,0.7,0,1.1C43.6,19,43.6,19,43.5,19z"/>
	</g>
</g>
<g>
	<path class="st5" d="M12.7,5.9c-0.1-0.4-0.6-0.7-1.1-0.5C11.2,5.5,11,6,11.1,6.5l2.2,6.7c0.1,0.4,0.6,0.6,1,0.5
		c0.4-0.1,0.7-0.6,0.6-1L12.7,5.9"/>
	<path class="st6" d="M9.3,7C9.2,6.6,8.7,6.4,8.3,6.5C7.8,6.6,7.6,7.1,7.7,7.6l2.2,6.7c0.1,0.4,0.6,0.6,1,0.5c0.4-0.1,0.7-0.6,0.6-1
		L9.3,7"/>
	<path class="st7" d="M15.4,11.5c0.4-0.1,0.7-0.6,0.5-1.1c-0.1-0.4-0.6-0.7-1.1-0.5L8.2,12c-0.4,0.1-0.6,0.6-0.5,1
		c0.1,0.4,0.6,0.7,1,0.6L15.4,11.5"/>
	<path class="st8" d="M9.6,13.4l1.6-0.5l-0.5-1.6l-1.6,0.5L9.6,13.4"/>
	<path class="st9" d="M13,12.3c0.6-0.2,1.2-0.4,1.6-0.5l-0.5-1.6l-1.6,0.5L13,12.3"/>
	<path class="st10" d="M14.3,8.1C14.8,8,15,7.5,14.9,7.1c-0.1-0.4-0.6-0.7-1.1-0.5L7.1,8.7c-0.4,0.1-0.6,0.6-0.5,1
		c0.1,0.4,0.6,0.7,1,0.6L14.3,8.1"/>
	<path class="st11" d="M8.5,10c0.4-0.1,1-0.3,1.6-0.5C9.9,8.9,9.7,8.3,9.6,7.9L8,8.4L8.5,10"/>
	<path class="st12" d="M11.9,8.9l1.6-0.5c-0.2-0.5-0.3-1.1-0.5-1.6l-1.6,0.5L11.9,8.9"/>
</g>
<text transform="matrix(1 0 0 1 20 11.9512)" class="st13 st14 st15">Join our Slack!</text>
</svg>
